<svg width="17" height="15" viewBox="0 0 17 15" fill="none" xmlns="http://www.w3.org/2000/svg">
<path fill-rule="evenodd" clip-rule="evenodd" d="M2.00144 4.71426C0.647138 4.71426 -0.315604 6.03202 0.0960864 7.32223L2.10178 13.6079C2.36636 14.4371 3.13679 15 4.00714 15H12.8064C13.6768 15 14.4472 14.4371 14.7118 13.6079L16.7175 7.32223C17.1291 6.03202 16.1664 4.71426 14.8121 4.71426H2.00144ZM5.42688 7.73128C5.42688 7.53446 5.58643 7.3749 5.78325 7.3749C5.98007 7.3749 6.13963 7.53446 6.13963 7.73128V11.6514C6.13963 11.8482 5.98007 12.0078 5.78325 12.0078C5.58643 12.0078 5.42688 11.8482 5.42688 11.6514V7.73128ZM8.45601 7.37492C8.25919 7.37492 8.09964 7.53448 8.09964 7.7313V11.6514C8.09964 11.8482 8.25919 12.0078 8.45601 12.0078C8.65283 12.0078 8.81239 11.8482 8.81239 11.6514V7.7313C8.81239 7.53448 8.65283 7.37492 8.45601 7.37492ZM11.1289 7.37492C10.932 7.37492 10.7725 7.53448 10.7725 7.7313V11.6514C10.7725 11.8482 10.932 12.0078 11.1289 12.0078C11.3257 12.0078 11.4852 11.8482 11.4852 11.6514V7.7313C11.4852 7.53448 11.3257 7.37492 11.1289 7.37492Z" fill="#FEFEFE"/>
<path fill-rule="evenodd" clip-rule="evenodd" d="M12.1255 1.5657C13.1281 2.5682 13.6912 3.92788 13.6912 5.34562L12.9787 5.34566C12.9787 4.73727 12.8588 4.13483 12.626 3.57274C12.3932 3.01065 12.0519 2.49993 11.6217 2.06973C11.1915 1.63953 10.6808 1.29827 10.1187 1.06545C9.55663 0.832623 8.95419 0.712791 8.34579 0.712791C7.7374 0.712791 7.13495 0.832623 6.57288 1.06545C6.01079 1.29827 5.50006 1.63953 5.06985 2.06973C4.63965 2.49993 4.2984 3.01065 4.06558 3.57274C3.83275 4.13483 3.71292 4.73727 3.71292 5.34566L3 5.34562C3 3.92788 3.5632 2.5682 4.5657 1.5657C5.56819 0.563198 6.92787 0 8.34563 0C9.76337 0 11.123 0.563198 12.1255 1.5657Z" fill="white"/>
</svg>
